<svg xmlns="http://www.w3.org/2000/svg" viewBox="0 0 326 326"><title>Asset 1</title><g id="Layer_2" data-name="Layer 2"><g id="Layer_1-2" data-name="Layer 1"><path d="M326,0C293,2.27,61.4,24.32,45.21,183.13c-2,17-3.08,34-3.81,51.09L155.29,120.44a10.19,10.19,0,0,1,14.42,14.41L4.48,299.91a15.29,15.29,0,1,0,21.63,21.61l36.38-36.34a718.77,718.77,0,0,0,80.2-4.68c34.05-3.47,61.78-16.86,84.42-36H162.83l93.46-31.12a251.52,251.52,0,0,0,19.39-30H224l67.83-33.88C318.54,84.59,324.84,16.72,326,0Z"/></g></g></svg>